#!OML:ASF F:\VICON\USERDATA\INSTALL\rory3\rory3.ASF
:FULLY-SPECIFIED
:DEGREES
64
root -0.17174810126281392 17.930734168790803 27.41062397864406 -3.618507950762912 -0.2974156511290351 -4.397440398273373
lfemur -3.5768762315526788 -1.2186580650999925 -15.894527628267983
ltibia 54.13231051370701
lfoot -4.495078757732946 -7.437242750239086
ltoes -4.616075640404403
rfemur -13.979495341463348 4.4949139242232174 28.80209037856138
rtibia 35.81757440588017
rfoot -9.226070269592975 -4.8282703888319
rtoes 3.3706629875639753
lowerback 9.157933734941272 -0.15927388916299368 1.9284272463725585
upperback 0.3269364559372293 0.08736473551424617 2.023156311047713
thorax -4.913847709470526 0.010252973608235516 1.1837355968015641
lowerneck -16.287482021956322 -2.964766400176445 -2.0585245474558818
upperneck 21.132689124773204 -3.8213103045348027 1.079863120662944
head 9.25348930915353 -1.7566292133725612 0.33720590264309563
lclavicle -4.532846847730828e-16 -7.764205462717381e-16
lhumerus -29.104969509698766 1.8534153037084655 81.32922905910246
lradius 22.828804446156862
lwrist 6.222590052163701
lhand -27.637504493346487 22.180638618468834
lfingers 7.12502
lthumb -0.5501443739676934 54.06987268269322
rclavicle -4.541517426956575e-16 -7.770906946229591e-16
rhumerus -35.10567470451454 -27.780335971054008 -73.26406166022531
rradius 23.473727036026233
rwrist 4.793294170302539
rhand -18.28974310371163 22.40879891010622
rfingers 7.12502
rthumb 8.057790575736085 -7.259638127991092
65
root -0.23233208645292414 17.9584269975877 27.883937674675302 -3.8963732139420726 -0.7848516854707033 -5.0796623654558815
lfemur -8.76352864925893 0.9804927727600168 -14.713863106533426
ltibia 58.47665973929593
lfoot -4.717090823603422 -7.181569603379894
ltoes -3.9480962513598166
rfemur -11.82764080055499 4.665470835511524 29.43647004992688
rtibia 35.12973061429474
rfoot -9.744848900491533 -4.578999314818812
rtoes 3.594248437331603
lowerback 9.187812460925409 0.05235257928330467 2.5258891969983583
upperback 0.33657723760759345 0.4255747867713455 2.051327700171349
thorax -4.9448286279779 0.16568305484780876 0.870869571483511
lowerneck -16.29690446511418 -2.972360927303584 -2.0732865670258596
upperneck 21.162829863109387 -3.8443123785795374 1.0872073252300738
head 9.234680869211651 -1.7747092902963049 0.34307138194964093
lclavicle -4.532846847724814e-16 -7.764205462712732e-16
lhumerus -30.378778126372005 2.3072255836916296 81.63455765878797
lradius 22.430944434982393
lwrist 5.837684811989858
lhand -27.820239536715672 21.657942353987337
lfingers 7.12502
lthumb -0.8054743927426408 53.361969484483346
rclavicle -4.541517426959948e-16 -7.7709069462322e-16
rhumerus -32.84631565329775 -25.29799589167051 -75.15156390762614
rradius 23.845032397299363
rwrist 4.518549164978876
rhand -18.2408175249044 22.515078571525198
rfingers 7.12502
rthumb 8.075898994224104 -7.231483221466234
66
root -0.27257399922837733 17.968601268857633 28.37881392446853 -4.00812583529996 -1.4364363582749444 -5.605223399505016
lfemur -13.934430341056919 3.045974064059061 -14.088483595472152
ltibia 60.54711983920391
lfoot -4.993743640533767 -7.1511296103768265
ltoes -3.8126844416273586
rfemur -8.61769192308057 4.996774277290198 30.44104835172535
rtibia 34.472325441337766
rfoot -9.70521958208323 -4.158757744584873
rtoes 4.007738834961211
lowerback 9.215914107090429 0.24961389106439918 2.9286335304696944
upperback 0.3464578217678257 0.8273847777001172 2.041986256234404
thorax -4.95581723083819 0.3522035727375478 0.5333779718759465
lowerneck -16.294951499768676 -2.9695280609288526 -2.071800376480242
upperneck 21.19042891447362 -3.844545498051014 1.118980886154848
head 9.235987782361233 -1.7757152184464635 0.3801841304988141
lclavicle -4.532846847725793e-16 -7.764205462713489e-16
lhumerus -31.44656534304309 2.71336545919951 81.85950725895079
lradius 22.114782522185372
lwrist 5.442251107207232
lhand -27.601931083272905 22.21485988908404
lfingers 7.12502
lthumb -0.6544430027414885 53.81780094537869
rclavicle -4.541517426962528e-16 -7.770906946234193e-16
rhumerus -30.611880882538685 -22.165256718593945 -77.18533138733078
rradius 24.38328026289031
rwrist 4.049433269755494
rhand -18.244364091036502 22.545793278122567
rfingers 7.12502
rthumb 8.073826343866012 -7.231607226749649
67
root -0.29455037137653506 17.96059702639175 28.937381713531664 -3.9319467490138673 -2.2144653105704313 -6.096613187319997
lfemur -18.930104896265615 4.679177417797042 -13.611332496061468
ltibia 60.21421794622775
lfoot -5.413583170378292 -7.121002850852947
ltoes -3.65082922170001
rfemur -6.529678650870406 4.985369505194562 31.14300081569607
rtibia 34.12280366163893
rfoot -9.413262197988775 -3.7641238075947214
rtoes 4.194011499411293
lowerback 9.285985793140991 0.4765056117747442 3.3731072786789236
upperback 0.3425311751588957 1.233487716339071 1.998724505992668
thorax -5.004612804083995 0.5072204122430195 0.10373017772213416
lowerneck -16.29442783450272 -2.9673346686370334 -2.084658335739694
upperneck 21.17931747892057 -3.832689411075304 1.1333135199644753
head 9.221488382932591 -1.7858150337344052 0.38549106726765153
lclavicle -4.532846847723885e-16 -7.764205462712014e-16
lhumerus -32.531672659046016 3.0885754111875694 81.9589851702286
lradius 21.71926736584959
lwrist 5.242631398164688
lhand -27.768166128042278 21.706987934881383
lfingers 7.12502
lthumb -0.7845828006951998 53.35050881593194
rclavicle -4.541517426961404e-16 -7.770906946233324e-16
rhumerus -28.526621499652165 -18.557782085113676 -79.15242827457352
rradius 24.984117130816788
rwrist 3.6599636387066043
rhand -18.275183502233105 22.500506940884975
rfingers 7.12502
rthumb 8.067030251851 -7.247914725967541
